<svg id="visual" viewBox="0 0 450 900" width="450" height="900" xmlns="http://www.w3.org/2000/svg" xmlns:xlink="http://www.w3.org/1999/xlink" version="1.1"><rect x="0" y="0" width="450" height="900" fill="#001220"></rect><g fill="#A7233A"><circle r="50" cx="253" cy="507"></circle><circle r="22" cx="162" cy="810"></circle><circle r="36" cx="428" cy="362"></circle><circle r="23" cx="41" cy="782"></circle><circle r="29" cx="172" cy="223"></circle><circle r="36" cx="285" cy="27"></circle><circle r="29" cx="348" cy="136"></circle><circle r="43" cx="388" cy="672"></circle><circle r="33" cx="306" cy="329"></circle><circle r="32" cx="252" cy="694"></circle><circle r="23" cx="44" cy="224"></circle><circle r="48" cx="265" cy="866"></circle><circle r="42" cx="138" cy="663"></circle><circle r="21" cx="1" cy="368"></circle><circle r="25" cx="149" cy="389"></circle><circle r="33" cx="363" cy="518"></circle><circle r="34" cx="8" cy="606"></circle><circle r="43" cx="308" cy="227"></circle><circle r="45" cx="110" cy="82"></circle><circle r="35" cx="113" cy="506"></circle><circle r="27" cx="416" cy="242"></circle><circle r="21" cx="446" cy="846"></circle><circle r="45" cx="23" cy="12"></circle><circle r="44" cx="428" cy="43"></circle><circle r="45" cx="306" cy="600"></circle><circle r="39" cx="365" cy="786"></circle><circle r="30" cx="237" cy="135"></circle><circle r="26" cx="1" cy="878"></circle><circle r="27" cx="114" cy="898"></circle><circle r="26" cx="12" cy="486"></circle><circle r="45" cx="446" cy="581"></circle><circle r="40" cx="20" cy="123"></circle><circle r="30" cx="181" cy="4"></circle><circle r="39" cx="448" cy="468"></circle></g></svg>