<svg id="visual" viewBox="0 0 900 600" width="900" height="600" xmlns="http://www.w3.org/2000/svg" xmlns:xlink="http://www.w3.org/1999/xlink" version="1.1"><rect x="0" y="0" width="900" height="600" fill="#001220"></rect><defs><linearGradient id="grad1_0" x1="33.3%" y1="0%" x2="100%" y2="100%"><stop offset="20%" stop-color="#001220" stop-opacity="1"></stop><stop offset="80%" stop-color="#001220" stop-opacity="1"></stop></linearGradient></defs><defs><linearGradient id="grad2_0" x1="0%" y1="0%" x2="66.7%" y2="100%"><stop offset="20%" stop-color="#001220" stop-opacity="1"></stop><stop offset="80%" stop-color="#001220" stop-opacity="1"></stop></linearGradient></defs><g transform="translate(900, 0)"><path d="M0 486.7C-40.9 430.3 -81.8 373.8 -149.2 360.3C-216.7 346.8 -310.8 376.3 -344.2 344.2C-377.6 312.1 -350.4 218.4 -364 150.8C-377.7 83.2 -432.2 41.6 -486.7 0L0 0Z" fill="#FBAE3C"></path></g><g transform="translate(0, 600)"><path d="M0 -486.7C66.2 -482.6 132.4 -478.5 186.3 -449.7C240.2 -420.9 281.8 -367.6 318.2 -318.2C354.6 -268.8 385.8 -223.4 413 -171.1C440.2 -118.7 463.5 -59.3 486.7 0L0 0Z" fill="#FBAE3C"></path></g></svg>